<svg id="Layer_1" data-name="Layer 1" xmlns="http://www.w3.org/2000/svg" viewBox="0 0 600 600"><defs><style>.cls-1{fill:#0fae92;}.cls-2{fill:#fff;}</style></defs><title>Lab-Plugin-SuperCoolAd100</title><rect class="cls-1" width="600" height="600"/><path d="M308.94,121.37c-106.43,0-192.71,86.28-192.71,192.71s86.28,192.71,192.71,192.71,192.71-86.28,192.71-192.71S415.37,121.37,308.94,121.37Zm1.59,293.48A100.77,100.77,0,1,1,411.3,314.08,100.77,100.77,0,0,1,310.54,414.85Z"/><path d="M308.95,511c-108.56,0-196.87-88.31-196.87-196.87S200.38,117.2,308.95,117.2s196.88,88.31,196.88,196.88S417.51,511,308.95,511Zm0-385.42c-104,0-188.54,84.58-188.54,188.54S205,502.62,308.95,502.62,497.49,418,497.49,314.08,412.91,125.54,308.95,125.54ZM310.53,419A104.94,104.94,0,1,1,415.47,314.08,105.06,105.06,0,0,1,310.53,419Zm0-201.54a96.6,96.6,0,1,0,96.61,96.6A96.71,96.71,0,0,0,310.53,217.48Z"/><path class="cls-2" d="M288.82,393.13c-.54,0-1.06-.07-1.59-.08v92c103.87,0,188.5-82.19,192.52-185.07H389.2A100.71,100.71,0,0,1,288.82,393.13Z"/><path d="M287.22,489.23h-4.17V388.82l5.76.15c50.19,0,92.46-39.22,96.22-89.27l.29-3.86h98.73l-.16,4.33A196.21,196.21,0,0,1,287.22,489.23Zm4.17-92v83.59a187.88,187.88,0,0,0,184-176.69H393C387.17,355.85,343.49,396,291.39,397.27Z"/><path class="cls-2" d="M188.43,300H94.71c4,102.88,88.65,185.07,192.52,185.07v-92A100.67,100.67,0,0,1,188.43,300Z"/><path d="M291.39,489.23h-4.17A196.21,196.21,0,0,1,90.55,300.16l-.16-4.33H192.3l.29,3.86a96,96,0,0,0,94.69,89.19l4.1.07ZM99.09,304.17a187.88,187.88,0,0,0,184,176.69V397.08a104.22,104.22,0,0,1-98.41-92.91Z"/><path class="cls-2" d="M287.22,99.65v92c.54,0,1.05-.08,1.59-.08A100.77,100.77,0,0,1,389.58,292.36c0,2.58-.2,5.11-.39,7.64h90.54c.1-2.54.19-5.08.19-7.64C479.93,185.93,393.65,99.65,287.22,99.65Z"/><path d="M483.73,304.17h-99l.33-4.48c.2-2.63.37-5,.37-7.33a96.71,96.71,0,0,0-96.6-96.6l-5.76.15V95.48h4.17c108.56,0,196.88,88.31,196.88,196.88,0,2.62-.09,5.22-.2,7.81Zm-90.08-8.33h82.06c0-1.16,0-2.31,0-3.47,0-102.57-82.32-186.28-184.37-188.49v83.59a105.05,105.05,0,0,1,102.36,104.9C393.75,293.52,393.71,294.69,393.65,295.83Z"/><path class="cls-2" d="M188,292.36a100.73,100.73,0,0,1,99.18-100.69v-92c-106.43,0-192.71,86.28-192.71,192.71,0,2.56.09,5.1.19,7.64h93.72C188.24,297.47,188,294.94,188,292.36Z"/><path d="M192.94,304.17H90.72l-.17-4c-.11-2.6-.2-5.19-.2-7.81,0-108.56,88.31-196.87,196.88-196.87h4.17V195.78l-4.1.07c-52.43.82-95.08,44.12-95.08,96.52,0,2.47.19,4.9.37,7.32Zm-94.21-8.33H184c-.06-1.15-.1-2.31-.1-3.47,0-55.55,44.12-101.68,99.18-104.7V103.87C181,106.08,98.68,189.79,98.68,292.36,98.68,293.52,98.7,294.68,98.73,295.83Z"/></svg>